HIERARCHY
ROOT pelvis
{
  OFFSET 0 100 0
  CHANNELS 6 Xposition Yposition Zposition Zrotation Xrotation Yrotation
  JOINT pelvis_right_femur
  {
    OFFSET -10.78128 -3.44521 -0.5502486
    CHANNELS 3 Zrotation Xrotation Yrotation
    JOINT right_femur_tibia
    {
      OFFSET -0.8047443 -44.0398 -0.1307829
      CHANNELS 3 Zrotation Xrotation Yrotation
      JOINT right_tibia_foot
      {
        OFFSET 3.006224 -47.83518 -5
        CHANNELS 3 Zrotation Xrotation Yrotation
        End Site
        {
          OFFSET 0 -5 15
        }
      }
    }
  }
  JOINT pelvis_left_femur
  {
    OFFSET 10.78128 -3.44521 -0.5502486
    CHANNELS 3 Zrotation Xrotation Yrotation
    JOINT left_femur_tibia
    {
      OFFSET 0.8047443 -44.0398 -0.1307829
      CHANNELS 3 Zrotation Xrotation Yrotation
      JOINT left_tibia_foot
      {
        OFFSET -4.370144 -48.10324 -4.275266
        CHANNELS 3 Zrotation Xrotation Yrotation
        End Site
        {
          OFFSET 0 -5 15
        }
      }
    }
  }
  JOINT pelvis_spine1
  {
    OFFSET 0 6.468898 -3.129235
    CHANNELS 3 Zrotation Xrotation Yrotation
    JOINT spine1
    {
      OFFSET 0 23.15396 4.99043
      CHANNELS 3 Zrotation Xrotation Yrotation
      JOINT spine2
      {
        OFFSET 0 20.79997 -5.064912
        CHANNELS 3 Zrotation Xrotation Yrotation
        JOINT neck
        {
          OFFSET 0 14.38658 9.616178
          CHANNELS 3 Zrotation Xrotation Yrotation
          End Site
          {
            OFFSET 0 20 0
          }
        }
      }
      JOINT right_manubrium
      {
        OFFSET -5.722621 16.35077 3.967754
        CHANNELS 3 Zrotation Xrotation Yrotation
        JOINT right_clavicle
        {
          OFFSET -13.16364 1.694482 -4.693211
          CHANNELS 3 Zrotation Xrotation Yrotation
          JOINT right_humerus
          {
            OFFSET -28.5034 -0.3100689 -2.792744
            CHANNELS 3 Zrotation Xrotation Yrotation
            JOINT right_radius
            {
              OFFSET -25.15693 0.02248979 -1.271978
              CHANNELS 3 Zrotation Xrotation Yrotation
              End Site
              {
                OFFSET -15 0 0
              }
            }
          }
        }
      }
      JOINT left_manubrium
      {
        OFFSET 5.722621 16.35077 3.967754
        CHANNELS 3 Zrotation Xrotation Yrotation
        JOINT left_clavicle
        {
          OFFSET 13.16364 1.694482 -4.693211
          CHANNELS 3 Zrotation Xrotation Yrotation
          JOINT left_humerus
          {
            OFFSET 29.39168 -1.063119 -2.237045
            CHANNELS 3 Zrotation Xrotation Yrotation
            JOINT left_radius
            {
              OFFSET 24.59957 -0.9528479 0.9047498
              CHANNELS 3 Zrotation Xrotation Yrotation
              End Site
              {
                OFFSET 15 -0 -0
              }
            }
          }
        }
      }
    }
  }
}
MOTION
Frames: 23
Frame Time: 0.0416666666667
0 103.5113 0 0.7239996 -2.406218 0.04160567 2.477075 -11.35091 8.761287 -0 39.40325 -0 -8.006147 -18.82081 -4.99895 -5.877255 10.4039 -23.47853 -0 4.609274 -0 5.856845 -14.88508 25.39134 -1.645194 -3.093015 4.99243 2.872162 9.199767 -7.666955 1.747826 20.36374 7.12776 3.150399 -27.14628 10.70808 5.790224 -19.63489 11.19722 85.81562 33.68962 -20.48731 -0 0 16.87976 -4.677939 7.905683 2.703397 7.049051 -20.23068 -0.6267415 -95.24057 25.39779 23.84924 0 0 -17.47183 10.05633 16.26983 2.970058
0.2334212 103.7725 1.586393 0.7017214 -1.711288 0.08913637 2.850086 -13.98732 9.321172 -0 39.3842 -0 -6.961027 -18.55205 -4.94197 -6.101668 11.34885 -23.92605 -0 4.516243 -0 5.532192 -16.25839 25.56731 -1.639648 -3.118497 5.044041 2.844229 9.177779 -7.615611 1.768644 20.37064 7.116899 3.143055 -27.17118 10.73969 5.787976 -19.7171 11.18626 85.70297 33.5998 -20.37628 -0 0 17.10342 -4.588718 7.812473 2.644777 7.049544 -20.14463 -0.6087361 -95.45493 25.47916 24.12348 0 0 -17.29687 9.971055 16.35181 3.080724
0.4636577 103.8627 3.317986 0.4174107 -1.823691 0.1315687 3.751452 -17.2561 7.920409 -0 36.57071 -0 -8.240184 -14.4965 -4.026531 -6.063451 12.08273 -22.87457 -0 4.975308 -0 6.526792 -17.43644 25.4985 -1.625349 -3.048954 4.860212 2.93839 9.249565 -7.875426 1.678693 20.3404 7.118897 3.154956 -27.03818 10.54799 5.768935 -19.44821 11.21974 86.30713 33.85598 -21.0912 -0 0 16.31271 -4.784699 8.071183 2.768811 7.009645 -20.54165 -0.7451781 -94.74834 25.65122 23.25881 0 0 -18.37396 9.753115 16.11312 3.390794
0.6874927 103.8416 5.190573 0.1876952 -1.258263 0.2023044 4.487507 -20.64674 7.369738 -0 33.96432 -0 -8.274208 -12.14113 -3.395121 -6.109067 12.72075 -22.23338 -0 5.13127 -0 6.60413 -18.86567 25.1744 -1.616404 -3.005949 4.736401 3.000304 9.292162 -8.040938 1.625795 20.32118 7.124526 3.161476 -26.95539 10.44056 5.759789 -19.26948 11.23805 86.69804 34.01415 -21.55419 -0 0 15.80484 -4.904296 8.249548 2.835467 6.989472 -20.79244 -0.8315753 -94.2907 25.73954 22.68688 0 0 -19.04842 9.643035 15.97279 3.551317
0.9057039 103.6896 7.293142 -0.1047386 -0.3837888 0.3190702 5.306931 -24.16505 6.998564 -0 30.75993 -0 -7.989145 -10.31063 -2.853371 -6.100849 13.21241 -21.4509 -0 5.420657 -0 6.26118 -20.2628 24.4394 -1.6061 -2.946178 4.58988 3.071863 9.349548 -8.241582 1.554946 20.2987 7.130532 3.173151 -26.83893 10.29186 5.746764 -19.05223 11.26481 87.17453 34.21828 -22.10629 -0 0 15.17796 -5.092327 8.481527 2.946736 6.956334 -21.10215 -0.9420761 -93.71992 25.84116 21.98696 0 0 -19.87875 9.482634 15.77973 3.778443
1.121183 103.4239 9.707732 -0.4236178 0.7566375 0.4996727 6.129599 -27.51263 6.854955 -0 27.36884 -0 -7.346123 -8.94281 -2.405714 -6.077291 13.54697 -20.62673 -0 5.991265 -0 5.430924 -21.53184 23.33337 -1.59832 -2.883873 4.456728 3.135255 9.407185 -8.423599 1.485379 20.27884 7.137558 3.187319 -26.71933 10.1448 5.73431 -18.849 11.29303 87.60973 34.41801 -22.59706 -0 0 14.58947 -5.307812 8.714892 3.076976 6.920678 -21.38867 -1.046329 -93.17635 25.90803 21.32761 0 0 -20.63666 9.336224 15.58167 3.982704
1.337954 103.0743 12.5236 -0.7802096 2.004283 0.7513898 6.959668 -30.43617 6.836136 -0 23.98199 -0 -6.578937 -7.904161 -2.053293 -6.010269 13.73305 -19.7082 -0 7.120927 -0 4.226259 -22.44955 21.84713 -1.591914 -2.813274 4.335756 3.190068 9.470566 -8.595969 1.409539 20.2614 7.143234 3.2063 -26.58222 9.978416 5.719193 -18.65477 11.32655 88.02468 34.62764 -23.0478 -0 0 14.01342 -5.578091 8.959617 3.246812 6.874263 -21.66875 -1.15361 -92.63639 25.96497 20.6918 0 0 -21.37538 9.158501 15.35877 4.223199
1.560373 102.6891 15.81903 -1.170588 3.176123 1.069333 7.763597 -32.66431 6.850089 -0 20.89985 -0 -5.916702 -7.113973 -1.806394 -5.880852 13.79254 -18.68773 -0 9.069494 -0 2.807749 -22.79801 20.04623 -1.588327 -2.735212 4.238538 3.230307 9.538539 -8.74451 1.329525 20.24829 7.14694 3.230829 -26.43061 9.795752 5.701192 -18.4836 11.3656 88.38432 34.84103 -23.41347 -0 0 13.48605 -5.908635 9.20447 3.462527 6.816524 -21.92325 -1.257509 -92.13115 26.00198 20.12324 0 0 -22.04188 8.955463 15.11276 4.48973
1.79228 102.3393 19.64979 -1.584059 4.074978 1.433533 8.49836 -33.93875 6.802938 -0 18.42606 -0 -5.594475 -6.552202 -1.685537 -5.666737 13.73542 -17.56436 -0 12.09514 -0 1.387713 -22.36872 18.0416 -1.58799 -2.648001 4.172457 3.251341 9.612234 -8.862952 1.243968 20.24099 7.147558 3.262332 -26.26037 9.591081 5.678829 -18.343 11.41163 88.67306 35.05966 -23.67216 -0 0 13.02223 -6.314779 9.446412 3.736181 6.743778 -22.14558 -1.357703 -91.67269 26.02495 19.64545 0 0 -22.62211 8.711013 14.83781 4.801877
2.036541 102.1215 24.03683 -1.993942 4.537664 1.809975 9.108177 -34.05034 6.620141 -0 16.81099 -0 -5.78161 -6.226567 -1.701336 -5.356764 13.51876 -16.35265 -0 16.39841 -0 0.1659379 -21.03057 15.9738 -1.592066 -2.550178 4.147267 3.247406 9.692409 -8.940969 1.152504 20.24141 7.144324 3.302288 -26.06919 9.361244 5.650776 -18.2431 11.46603 88.86507 35.28326 -23.78854 -0 0 12.64485 -6.813305 9.68014 4.081098 6.653108 -22.32367 -1.451341 -91.2793 26.03176 19.28958 0 0 -23.08488 8.418216 14.52832 5.166555
2.294822 102.1537 28.95526 -2.356212 4.476013 2.156418 9.530281 -32.86027 6.261366 -0 16.1678 -0 -6.529426 -6.142861 -1.83658 -4.955636 13.00012 -15.07653 -0 22.06485 -0 -0.7423439 -18.77344 13.97632 -1.601663 -2.439547 4.172663 3.212234 9.780205 -8.968555 1.054285 20.25173 7.136609 3.352381 -25.85275 9.101767 5.615239 -18.19333 11.53041 88.93581 35.51222 -23.72798 -0 0 12.37456 -7.426029 9.902484 4.513109 6.540803 -22.44651 -1.536613 -90.96658 26.02254 19.08462 0 0 -23.40361 8.065547 14.17669 5.596683
2.567229 102.5543 34.32581 -2.612613 3.908779 2.432859 9.697986 -30.32353 5.72796 -0 16.3809 -0 -7.730531 -6.269911 -2.026668 -4.48394 11.90895 -13.76203 -0 28.97748 -0 -1.363588 -15.74574 12.15757 -1.618231 -2.313399 4.259344 3.138615 9.876893 -8.933935 0.9486903 20.27447 7.124113 3.414343 -25.60586 8.808704 5.570002 -18.20358 11.60646 88.85697 35.74549 -23.44984 -0 0 12.23391 -8.18004 10.11122 5.050729 6.402982 -22.50122 -1.611291 -90.75051 25.99366 19.06051 0 0 -23.54678 7.643289 13.77351 6.102382
2.851301 103.4013 40.01279 -2.699842 2.961338 2.611769 9.548981 -26.50788 5.061141 -0 17.04569 -0 -9.117053 -6.531328 -2.15336 -3.968228 9.871453 -12.43054 -0 36.70829 -0 -1.862885 -12.26975 10.6243 -1.643367 -2.168731 4.41819 3.018599 9.983581 -8.824272 0.8356638 20.31245 7.107008 3.48957 -25.32226 8.479545 5.512299 -18.28333 11.69567 88.59899 35.9788 -22.91062 -0 0 12.24616 -9.106883 10.3059 5.713584 6.235863 -22.47379 -1.673225 -90.6461 25.93845 19.24548 0 0 -23.48108 7.143001 13.30848 6.691869
3.14071 104.6782 45.83679 -2.566768 1.822009 2.68052 9.051892 -21.61511 4.335143 -0 17.49851 -0 -10.31773 -6.843838 -2.07416 -3.422286 6.529686 -11.09625 -0 44.42076 -0 -2.462513 -8.821925 9.527952 -1.678666 -2.003011 4.659272 2.844106 10.1006 -8.626203 0.716595 20.36847 7.086037 3.578363 -24.99573 8.115574 5.43882 -18.44092 11.79866 88.13308 36.20108 -22.06717 -0 0 12.4352 -10.23841 10.48731 6.518776 6.036805 -22.34905 -1.720089 -90.66689 25.84551 19.66335 0 0 -23.17165 6.56122 12.7725 7.366752
3.425877 106.2341 51.60803 -2.202197 0.655205 2.631863 8.252824 -15.98892 3.642185 -0 17.0145 -0 -10.99171 -7.210429 -1.707551 -2.825693 1.762785 -9.766227 -0 50.87655 -0 -3.286616 -5.941945 9.072033 -1.72514 -1.815653 4.989362 2.608464 10.2264 -8.328306 0.5953825 20.44468 7.062466 3.678793 -24.622 7.724778 5.34601 -18.6818 11.91416 87.43853 36.39052 -20.88765 -0 0 12.82335 -11.59689 10.65654 7.473265 5.805825 -22.11259 -1.749748 -90.82337 25.7013 20.32827 0 0 -22.5884 5.901403 12.16238 8.120209
3.699981 107.7932 57.17389 -1.664129 -0.4816043 2.45176 7.307821 -10.07691 3.061413 -0 15.16929 -0 -10.99561 -7.8196 -1.13407 -2.11731 -4.095058 -8.438522 -0 54.67699 -0 -4.205504 -4.05111 9.421772 -1.782395 -1.609848 5.408336 2.308912 10.35632 -7.925283 0.4791516 20.5417 7.037901 3.785726 -24.2015 7.324116 5.230966 -19.00605 12.03788 86.51418 36.51318 -19.36878 -0 0 13.42643 -13.18027 10.81348 8.563935 5.547313 -21.75467 -1.760908 -91.12077 25.49642 21.23801 0 0 -21.71714 5.174551 11.48713 8.937392
3.969996 109.0328 62.46162 -1.079793 -1.630243 2.122153 6.440318 -4.323266 2.619269 -0 12.14953 -0 -10.45781 -9.015009 -0.5911221 -1.2258 -10.26517 -7.105896 -0 54.76336 -0 -4.845473 -3.250645 10.55812 -1.847959 -1.393528 5.905302 1.949527 10.48211 -7.423065 0.3775611 20.658 7.014244 3.891023 -23.74188 6.938804 5.093012 -19.40529 12.16215 85.39099 36.52939 -17.55421 -0 0 14.2444 -14.94954 10.95688 9.750853 5.270883 -21.27614 -1.754087 -91.55519 25.2336 22.36649 0 0 -20.57382 4.397806 10.77242 9.79873
4.263228 109.6956 67.50063 -0.590889 -2.812957 1.638766 5.814074 0.9663887 2.27786 -0 8.700297 -0 -9.667422 -11.02778 -0.3026178 -0.1391767 -15.86797 -5.785391 -0 50.93492 -0 -4.860608 -3.276627 12.22573 -1.917463 -1.178001 6.456408 1.543324 10.5936 -6.842427 0.3001922 20.78951 6.993982 3.985431 -23.25806 6.597209 4.935244 -19.85963 12.27734 84.13747 36.40904 -15.54191 -0 0 15.24902 -16.8296 11.0879 10.97136 4.990459 -20.69431 -1.732479 -92.10675 24.92952 23.65646 0 0 -19.2151 3.594035 10.05787 10.68105
4.61899 109.6726 72.41708 -0.2736463 -3.931365 1.024891 5.423421 5.686205 1.980158 -0 5.726247 -0 -8.855476 -13.65056 -0.3010839 1.030417 -20.3321 -4.564684 -0 44.00586 -0 -4.24843 -3.703428 14.04809 -1.985638 -0.9745363 7.025871 1.112172 10.68216 -6.218896 0.2533321 20.92972 6.980352 4.061008 -22.76892 6.323505 4.764695 -20.3364 12.37445 82.8523 36.14756 -13.47324 -0 0 16.37533 -18.72637 11.21583 12.15491 4.721886 -20.04545 -1.702521 -92.73156 24.60731 25.01492 0 0 -17.7385 2.793531 9.386232 11.55412
5.070729 109.0195 77.39791 -0.1042083 -4.808128 0.3324845 5.110071 9.864785 1.71453 -0 3.938488 -0 -8.056795 -16.21425 -0.4258161 2.054486 -23.50784 -3.608362 -0 35.4743 -0 -3.372206 -4.212691 15.70197 -2.047348 -0.7912868 7.570419 0.6840229 10.74373 -5.598432 0.2383831 21.07002 6.976752 4.112413 -22.29203 6.132428 4.590723 -20.79258 12.4472 81.64624 35.77037 -11.50837 -0 0 17.5259 -20.54825 11.36064 13.23851 4.480439 -19.38124 -1.673961 -93.35968 24.28751 26.31788 0 0 -16.27075 2.033793 8.791878 12.37839
5.634538 107.9195 82.63533 0.004102801 -5.32005 -0.36794 4.682554 13.54215 1.524599 -0 3.782735 -0 -7.172892 -17.8922 -0.4634986 2.677671 -25.48532 -3.096325 -0 26.9664 -0 -2.688306 -4.685382 17.01669 -2.09815 -0.6323449 8.046183 0.2881089 10.7794 -5.029932 0.2525164 21.20081 6.985708 4.136935 -21.83996 6.028241 4.422826 -21.18175 12.49249 80.62097 35.32453 -9.798728 -0 0 18.58918 -22.21977 11.54928 14.17492 4.278986 -18.75966 -1.658844 -93.90596 23.98601 27.42967 0 0 -14.9472 1.353501 8.295608 13.11093
6.309498 106.6276 88.27837 0.1355977 -5.491971 -1.00495 4.029243 16.68266 1.458207 -0 5.534794 -0 -6.158019 -18.01109 -0.2941895 2.717643 -26.3725 -3.143144 -0 19.81952 -0 -2.468364 -5.12379 17.97124 -2.134616 -0.4984835 8.4158 -0.05018101 10.79376 -4.556891 0.2903729 21.31323 7.008431 4.134239 -21.41954 6.006772 4.269242 -21.46264 12.50995 79.85264 34.86514 -8.464269 -0 0 19.46225 -23.68675 11.80844 14.93433 4.126744 -18.23412 -1.669322 -94.28915 23.71672 28.22958 0 0 -13.88912 0.7838279 7.906101 13.71617
7.083118 105.4216 94.40661 0.3303393 -5.492712 -1.51946 3.161325 19.14277 1.518241 -0 9.378329 -0 -5.128731 -16.19885 0.04709548 2.118836 -26.20207 -3.748846 -0 14.93153 -0 -2.712134 -5.560846 18.63366 -2.154578 -0.3883106 8.652891 -0.3126723 10.79261 -4.211472 0.3456635 21.40083 7.045297 4.106137 -21.03312 6.058722 4.136524 -21.60507 12.50108 79.38547 34.44373 -7.582048 -0 0 20.06625 -24.91707 12.15901 15.50297 4.028725 -17.84573 -1.715368 -94.44767 23.49224 28.63086 0 0 -13.18753 0.3432489 7.623959 14.17314
